<svg xmlns="http://www.w3.org/2000/svg" width="24" height="24" viewBox="0 -960 960 960"><path d="M524-40H420l20-12.5q20-12.5 43.5-28t43.5-28l20-12.5q81-6 149.5-49T805-285q-86-8-163-43.5T504-425t-97-138-43-163q-77 43-120.5 118.5T200-444v12l-12 5.5q-12 5.5-26.5 11.5T135-403.5l-12 5.5q-2-11-2.5-23t-.5-23q0-146 93-257.5T450-840q-18 99 11 193.5T561-481t165.5 100T920-370q-26 144-138 237T524-40m-284-80h180q25 0 42.5-17.5T480-180t-17-42.5-41-17.5h-52l-20-48q-14-33-44-52.5T240-360q-50 0-85 34.5T120-240q0 50 35 85t85 35m0 80q-83 0-141.5-58.5T40-240t58.5-141.5T240-440q60 0 109.5 32.5T423-320q57 2 97 42.5t40 97.5q0 58-41 99t-99 41z"/></svg>